<?xml version="1.0" encoding="UTF-8"?>
<!DOCTYPE svg PUBLIC "-//W3C//DTD SVG 1.1//EN" "http://www.w3.org/Graphics/SVG/1.1/DTD/svg11.dtd">
<svg xmlns="http://www.w3.org/2000/svg" version="1.1" width="600px" height="200px" style="shape-rendering:geometricPrecision; text-rendering:geometricPrecision; image-rendering:optimizeQuality; fill-rule:evenodd; clip-rule:evenodd" xmlns:xlink="http://www.w3.org/1999/xlink">
<g><path style="opacity:0.965" fill="#dd1312" d="M 128.5,32.5 C 131.547,31.8554 133.713,32.8554 135,35.5C 140.444,50.9535 144.778,66.6201 148,82.5C 133.803,88.0133 119.303,92.8466 104.5,97C 102.5,97.6667 100.5,97.6667 98.5,97C 92.889,82.8337 88.0557,68.3337 84,53.5C 83.3333,51.5 83.3333,49.5 84,47.5C 98.7702,42.1879 113.604,37.1879 128.5,32.5 Z"/></g>
<g><path style="opacity:0.97" fill="#8bc34a" d="M 262.5,35.5 C 264.857,35.3367 267.19,35.5034 269.5,36C 270.701,36.9025 271.535,38.0692 272,39.5C 274.248,55.1415 275.914,70.8081 277,86.5C 276.097,87.7014 274.931,88.5348 273.5,89C 258.995,90.7923 244.495,92.6257 230,94.5C 227.296,94.8146 225.296,93.8146 224,91.5C 221.67,75.5343 220.004,59.5343 219,43.5C 219.903,42.2986 221.069,41.4652 222.5,41C 236.022,39.4783 249.355,37.6449 262.5,35.5 Z"/></g>
<g><path style="opacity:0.967" fill="#f57c01" d="M 166.5,41.5 C 182.133,44.5743 197.466,48.5743 212.5,53.5C 212.987,54.4461 213.32,55.4461 213.5,56.5C 210.109,71.4044 206.109,86.0711 201.5,100.5C 200.554,100.987 199.554,101.32 198.5,101.5C 183.596,98.1088 168.929,94.1088 154.5,89.5C 154.013,88.5539 153.68,87.5539 153.5,86.5C 157,72.5 160.5,58.5 164,44.5C 164.698,43.3094 165.531,42.3094 166.5,41.5 Z"/></g>
<g><path style="opacity:1" fill="#fcfdfa" d="M 253.5,45.5 C 256.545,45.5079 259.545,45.8413 262.5,46.5C 263.303,53.2699 260.303,56.2699 253.5,55.5C 254.575,64.4814 255.075,73.4814 255,82.5C 252.519,84.3137 249.685,84.9804 246.5,84.5C 245.611,75.1621 244.611,65.8288 243.5,56.5C 240.482,56.6646 237.482,56.498 234.5,56C 232.813,54.087 232.313,51.9203 233,49.5C 239.858,47.8378 246.691,46.5044 253.5,45.5 Z"/></g>
<g><path style="opacity:1" fill="#fef8f8" d="M 119.5,46.5 C 121.527,46.3379 123.527,46.5045 125.5,47C 126.516,47.5194 127.182,48.3527 127.5,49.5C 125.641,53.7015 122.974,57.3681 119.5,60.5C 122.753,64.1294 126.42,67.2961 130.5,70C 134.5,73 134.5,76 130.5,79C 128.833,79.6667 127.167,79.6667 125.5,79C 121.667,75.1667 117.833,71.3333 114,67.5C 114.651,71.7877 115.484,76.121 116.5,80.5C 115.662,84.8369 113.162,86.1702 109,84.5C 105.695,75.2843 102.695,65.9509 100,56.5C 98.2801,50.5557 100.447,48.0557 106.5,49C 108.205,51.9545 109.538,55.1211 110.5,58.5C 113.556,54.4577 116.556,50.4577 119.5,46.5 Z"/></g>
<g><path style="opacity:1" fill="#fef7ef" d="M 174.5,64.5 C 178.161,64.3501 179.161,65.8501 177.5,69C 173.707,69.4866 172.707,67.9866 174.5,64.5 Z"/></g>
<g><path style="opacity:0.798" fill="#000000" d="M 401.5,65.5 C 402.833,65.5 404.167,65.5 405.5,65.5C 405.5,74.8333 405.5,84.1667 405.5,93.5C 407.833,93.5 410.167,93.5 412.5,93.5C 412.5,94.8333 412.5,96.1667 412.5,97.5C 410.167,97.5 407.833,97.5 405.5,97.5C 405.5,101.5 405.5,105.5 405.5,109.5C 404.167,109.5 402.833,109.5 401.5,109.5C 401.5,105.5 401.5,101.5 401.5,97.5C 396.5,97.5 391.5,97.5 386.5,97.5C 386.649,96.448 386.483,95.448 386,94.5C 385.282,95.4506 384.449,95.6172 383.5,95C 382.54,93.5806 381.707,92.0806 381,90.5C 380.5,96.8246 380.334,103.158 380.5,109.5C 379.167,109.5 377.833,109.5 376.5,109.5C 376.666,101.16 376.5,92.8267 376,84.5C 375.158,92.2304 373.991,99.8971 372.5,107.5C 371.167,107.5 369.833,107.5 368.5,107.5C 369.786,98.9547 371.119,90.4547 372.5,82C 371.207,81.51 369.873,81.3433 368.5,81.5C 368.5,80.1667 368.5,78.8333 368.5,77.5C 371.167,77.5 373.833,77.5 376.5,77.5C 376.5,75.5 376.5,73.5 376.5,71.5C 373.833,71.5 371.167,71.5 368.5,71.5C 368.5,70.1667 368.5,68.8333 368.5,67.5C 374.05,67.7633 379.55,67.4299 385,66.5C 386.301,67.0981 387.135,68.0981 387.5,69.5C 385.392,70.9438 383.059,71.6104 380.5,71.5C 380.5,73.5 380.5,75.5 380.5,77.5C 382.833,77.5 385.167,77.5 387.5,77.5C 387.5,78.8333 387.5,80.1667 387.5,81.5C 385.396,81.2011 383.396,81.5344 381.5,82.5C 383.3,86.1287 385.3,89.6287 387.5,93C 392.155,93.4992 396.821,93.6658 401.5,93.5C 401.5,84.1667 401.5,74.8333 401.5,65.5 Z"/></g>
<g><path style="opacity:0.759" fill="#000000" d="M 441.5,65.5 C 443.384,66.3816 444.717,67.8816 445.5,70C 450.5,70.3333 455.5,70.6667 460.5,71C 461.632,75.4132 461.799,79.9132 461,84.5C 450.248,85.487 439.415,85.8203 428.5,85.5C 429.991,94.3032 427.991,102.136 422.5,109C 420.799,109.345 419.466,108.678 418.5,107C 420.726,104.047 422.559,100.88 424,97.5C 424.333,88.8333 424.667,80.1667 425,71.5C 430.083,70.6929 435.25,70.1929 440.5,70C 439.257,68.184 439.59,66.684 441.5,65.5 Z M 428.5,74.5 C 438.167,74.5 447.833,74.5 457.5,74.5C 457.5,76.8333 457.5,79.1667 457.5,81.5C 447.833,81.5 438.167,81.5 428.5,81.5C 428.5,79.1667 428.5,76.8333 428.5,74.5 Z"/></g>
<g><path style="opacity:0.758" fill="#000000" d="M 480.5,65.5 C 481.833,65.5 483.167,65.5 484.5,65.5C 484.5,66.5 484.5,67.5 484.5,68.5C 488.833,68.5 493.167,68.5 497.5,68.5C 497.5,67.5 497.5,66.5 497.5,65.5C 498.833,65.5 500.167,65.5 501.5,65.5C 501.5,66.5 501.5,67.5 501.5,68.5C 505.5,68.5 509.5,68.5 513.5,68.5C 513.5,69.8333 513.5,71.1667 513.5,72.5C 509.5,72.5 505.5,72.5 501.5,72.5C 501.5,73.5 501.5,74.5 501.5,75.5C 504.833,75.5 508.167,75.5 511.5,75.5C 511.5,77.8333 511.5,80.1667 511.5,82.5C 510.167,82.5 508.833,82.5 507.5,82.5C 507.5,81.5 507.5,80.5 507.5,79.5C 496.167,79.5 484.833,79.5 473.5,79.5C 473.5,80.5 473.5,81.5 473.5,82.5C 472.167,82.5 470.833,82.5 469.5,82.5C 469.244,80.2075 469.577,78.0408 470.5,76C 473.817,75.5017 477.15,75.335 480.5,75.5C 480.5,74.5 480.5,73.5 480.5,72.5C 476.5,72.5 472.5,72.5 468.5,72.5C 468.5,71.1667 468.5,69.8333 468.5,68.5C 472.5,68.5 476.5,68.5 480.5,68.5C 480.5,67.5 480.5,66.5 480.5,65.5 Z M 484.5,72.5 C 488.833,72.5 493.167,72.5 497.5,72.5C 497.5,73.5 497.5,74.5 497.5,75.5C 493.167,75.5 488.833,75.5 484.5,75.5C 484.5,74.5 484.5,73.5 484.5,72.5 Z"/></g>
<g><path style="opacity:0.755" fill="#000000" d="M 332.5,66.5 C 337.844,66.334 343.177,66.5006 348.5,67C 352.547,72.2307 357.547,76.064 363.5,78.5C 363.66,80.1992 363.494,81.8659 363,83.5C 361.559,82.7402 360.059,82.0736 358.5,81.5C 357.614,82.325 357.281,83.325 357.5,84.5C 352.5,84.5 347.5,84.5 342.5,84.5C 342.5,86.8333 342.5,89.1667 342.5,91.5C 347.5,91.5 352.5,91.5 357.5,91.5C 357.5,92.8333 357.5,94.1667 357.5,95.5C 352.5,95.5 347.5,95.5 342.5,95.5C 342.5,98.1667 342.5,100.833 342.5,103.5C 349.167,103.5 355.833,103.5 362.5,103.5C 362.5,104.833 362.5,106.167 362.5,107.5C 348.167,107.5 333.833,107.5 319.5,107.5C 319.5,106.167 319.5,104.833 319.5,103.5C 325.833,103.5 332.167,103.5 338.5,103.5C 338.5,100.833 338.5,98.1667 338.5,95.5C 333.833,95.5 329.167,95.5 324.5,95.5C 324.5,94.1667 324.5,92.8333 324.5,91.5C 329.167,91.5 333.833,91.5 338.5,91.5C 338.5,89.1667 338.5,86.8333 338.5,84.5C 333.833,84.5 329.167,84.5 324.5,84.5C 324.657,83.1266 324.49,81.7932 324,80.5C 322.333,81.5 320.667,82.5 319,83.5C 317.731,82.0953 317.231,80.4286 317.5,78.5C 324.181,76.6527 329.181,72.6527 332.5,66.5 Z M 334.5,70.5 C 338.514,70.3345 342.514,70.5012 346.5,71C 348.833,74.6667 351.833,77.6667 355.5,80C 345.5,80.6667 335.5,80.6667 325.5,80C 329.402,77.6003 332.402,74.4336 334.5,70.5 Z"/></g>
<g><path style="opacity:1" fill="#fef3e9" d="M 191.5,67.5 C 194.861,68.2032 195.194,69.5365 192.5,71.5C 190.358,70.5629 190.024,69.2296 191.5,67.5 Z"/></g>
<g><path style="opacity:0.713" fill="#000000" d="M 388.5,69.5 C 392.053,71.3539 395.72,73.0205 399.5,74.5C 400.509,76.1846 400.009,77.5179 398,78.5C 394.773,77.1365 391.606,75.6365 388.5,74C 387.587,72.5861 387.587,71.0861 388.5,69.5 Z"/></g>
<g><path style="opacity:1" fill="#fddfc2" d="M 172.5,73.5 C 174.641,76.4718 177.308,78.9718 180.5,81C 183.54,81.3201 186.54,81.3201 189.5,81C 181.19,84.512 175.524,82.012 172.5,73.5 Z"/></g>
<g><path style="opacity:0.743" fill="#000000" d="M 388.5,80.5 C 392.598,82.0477 396.598,83.8811 400.5,86C 399.789,87.2547 398.956,88.4214 398,89.5C 395.022,87.6176 391.855,86.1176 388.5,85C 387.587,83.5861 387.587,82.0861 388.5,80.5 Z"/></g>
<g><path style="opacity:0.726" fill="#000000" d="M 475.5,81.5 C 485.5,81.5 495.5,81.5 505.5,81.5C 505.5,82.8333 505.5,84.1667 505.5,85.5C 495.5,85.5 485.5,85.5 475.5,85.5C 475.5,84.1667 475.5,82.8333 475.5,81.5 Z"/></g>
<g><path style="opacity:0.766" fill="#000000" d="M 495.5,94.5 C 498.598,104.769 494.931,110.103 484.5,110.5C 484.227,108.549 484.893,107.049 486.5,106C 480.919,106.602 475.419,107.769 470,109.5C 469.598,108.128 469.098,106.795 468.5,105.5C 473.827,104.001 479.161,102.501 484.5,101C 479.766,101.18 475.099,102.014 470.5,103.5C 469.548,101.955 469.215,100.288 469.5,98.5C 475.798,98.2068 481.798,96.7068 487.5,94C 481.566,95.1465 475.566,96.3131 469.5,97.5C 469.286,95.8561 469.62,94.3561 470.5,93C 482.307,91.0796 481.974,90.2462 469.5,90.5C 469.5,89.1667 469.5,87.8333 469.5,86.5C 483.833,86.5 498.167,86.5 512.5,86.5C 512.5,87.8333 512.5,89.1667 512.5,90.5C 508.167,90.5 503.833,90.5 499.5,90.5C 499.5,91.5 499.5,92.5 499.5,93.5C 502.667,93.5999 505.667,92.9332 508.5,91.5C 510.596,92.6197 510.93,94.1197 509.5,96C 502.02,96.3238 501.02,98.6571 506.5,103C 508.167,103.833 509.833,104.667 511.5,105.5C 512.89,107.495 512.39,108.828 510,109.5C 502.904,106.573 498.071,101.573 495.5,94.5 Z M 495.5,94.5 C 494.684,92.8564 493.35,91.6897 491.5,91C 493.167,90.3333 494.833,90.3333 496.5,91C 495.663,92.0113 495.33,93.1779 495.5,94.5 Z"/></g>
<g><path style="opacity:0.764" fill="#000000" d="M 432.5,90.5 C 441.839,90.3335 451.173,90.5002 460.5,91C 461.476,97.0758 461.81,103.242 461.5,109.5C 460.167,109.5 458.833,109.5 457.5,109.5C 457.5,108.5 457.5,107.5 457.5,106.5C 450.5,106.5 443.5,106.5 436.5,106.5C 436.5,107.5 436.5,108.5 436.5,109.5C 435.167,109.5 433.833,109.5 432.5,109.5C 432.5,103.167 432.5,96.8333 432.5,90.5 Z M 436.5,94.5 C 443.5,94.5 450.5,94.5 457.5,94.5C 457.5,97.1667 457.5,99.8333 457.5,102.5C 450.5,102.5 443.5,102.5 436.5,102.5C 436.5,99.8333 436.5,97.1667 436.5,94.5 Z"/></g>
<g><path style="opacity:0.903" fill="#fbbe2d" d="M 219.5,105.5 C 227.294,105.8 229.461,109.467 226,116.5C 224.581,117.46 223.081,118.293 221.5,119C 222.833,119.667 223.833,120.667 224.5,122C 221.935,131.76 219.435,141.594 217,151.5C 212.186,156.005 208.686,155.171 206.5,149C 208.755,139.481 211.088,129.981 213.5,120.5C 214.249,118.964 215.249,117.631 216.5,116.5C 212.568,111.691 213.568,108.024 219.5,105.5 Z"/></g>
<g><path style="opacity:0.982" fill="#576bd4" d="M 139.5,105.5 C 146.456,106.919 148.123,110.752 144.5,117C 139.01,117.706 133.677,119.039 128.5,121C 127.774,123.62 128.274,126.12 130,128.5C 135.869,125.641 142.036,124.141 148.5,124C 150.34,126.826 151.006,129.993 150.5,133.5C 144.428,135.023 138.428,136.857 132.5,139C 133.525,141.071 134.358,143.238 135,145.5C 140.765,143.187 146.598,141.354 152.5,140C 156.763,142.647 157.43,145.981 154.5,150C 146.903,152.478 139.237,154.644 131.5,156.5C 128.183,155.934 125.683,154.267 124,151.5C 121,141.167 118,130.833 115,120.5C 114.333,118.833 114.333,117.167 115,115.5C 117.08,113.877 119.246,112.377 121.5,111C 127.648,109.225 133.648,107.392 139.5,105.5 Z"/></g>
<g><path style="opacity:0.964" fill="#2095f3" d="M 171.5,114.5 C 177.707,112.885 180.873,115.219 181,121.5C 184.328,117.583 188.495,116.083 193.5,117C 196.796,119.801 197.129,122.801 194.5,126C 188.96,127.84 184.46,131.006 181,135.5C 180.667,140.5 180.333,145.5 180,150.5C 178.809,152.915 176.809,154.248 174,154.5C 172.108,154.223 170.775,153.223 170,151.5C 169.833,145.5 169.667,139.5 169.5,133.5C 169.542,126.927 170.208,120.594 171.5,114.5 Z"/></g>
<g><path style="opacity:0.969" fill="#f48eb0" d="M 246.5,117.5 C 252.262,117.149 257.928,117.649 263.5,119C 265.709,120.873 267.542,123.04 269,125.5C 269.853,134.408 271.02,143.241 272.5,152C 271.732,155.645 269.399,157.478 265.5,157.5C 262.623,156.657 260.456,154.99 259,152.5C 258.667,145.167 258.333,137.833 258,130.5C 257.261,129.426 256.261,128.759 255,128.5C 253.234,129.233 251.401,129.567 249.5,129.5C 248.834,137.814 248.334,146.147 248,154.5C 244.778,157.005 241.444,157.005 238,154.5C 237.333,144.5 237.333,134.5 238,124.5C 240.391,121.607 243.225,119.273 246.5,117.5 Z"/></g>
<g><path style="opacity:0.657" fill="#000000" d="M 395.5,122.5 C 399.56,122.91 401.56,125.244 401.5,129.5C 401.36,132.81 399.86,135.143 397,136.5C 392.859,133.992 391.525,130.326 393,125.5C 394.045,124.627 394.878,123.627 395.5,122.5 Z M 396.5,125.5 C 398.829,127.996 398.996,130.663 397,133.5C 395.188,130.954 395.022,128.288 396.5,125.5 Z"/></g>
<g><path style="opacity:0.731" fill="#000000" d="M 415.5,122.5 C 416.833,122.5 418.167,122.5 419.5,122.5C 419.232,127.347 419.898,132.014 421.5,136.5C 419.5,136.5 417.5,136.5 415.5,136.5C 416.312,134.257 416.979,131.924 417.5,129.5C 416.979,127.076 416.312,124.743 415.5,122.5 Z"/></g>
<g><path style="opacity:0.651" fill="#000000" d="M 425.5,122.5 C 430.494,122.329 432.328,124.662 431,129.5C 430.535,130.931 429.701,132.097 428.5,133C 429.793,133.49 431.127,133.657 432.5,133.5C 432.5,134.5 432.5,135.5 432.5,136.5C 429.5,136.5 426.5,136.5 423.5,136.5C 423.351,135.448 423.517,134.448 424,133.5C 426.209,131.627 428.042,129.46 429.5,127C 427.863,125.049 426.363,125.216 425,127.5C 423.198,125.727 423.365,124.06 425.5,122.5 Z"/></g>
<g><path style="opacity:0.731" fill="#000000" d="M 435.5,123.5 C 436.5,123.5 437.5,123.5 438.5,123.5C 438.5,124.5 438.5,125.5 438.5,126.5C 439.5,126.5 440.5,126.5 441.5,126.5C 442.167,122.5 442.833,122.5 443.5,126.5C 444.5,126.5 445.5,126.5 446.5,126.5C 446.281,125.325 446.614,124.325 447.5,123.5C 449.902,132.126 446.569,137.126 437.5,138.5C 436.068,138.267 435.568,137.6 436,136.5C 437.067,135.809 438.234,135.309 439.5,135C 437.941,134.02 436.274,133.187 434.5,132.5C 435.09,131.201 436.09,130.368 437.5,130C 435.771,128.211 435.104,126.044 435.5,123.5 Z M 440.5,132.5 C 441.601,131.402 442.934,131.235 444.5,132C 443.436,133.511 442.103,133.677 440.5,132.5 Z"/></g>
<g><path style="opacity:0.648" fill="#000000" d="M 403.5,128.5 C 406.5,128.5 409.5,128.5 412.5,128.5C 412.5,129.5 412.5,130.5 412.5,131.5C 409.5,131.5 406.5,131.5 403.5,131.5C 403.5,130.5 403.5,129.5 403.5,128.5 Z"/></g>
</svg>
