<svg xmlns="http://www.w3.org/2000/svg" viewBox="0 0 24 24" fill="none" stroke="currentColor" stroke-width="2" stroke-linecap="round" stroke-linejoin="round"><path d="M12 2H8.5C6.567 2 5 3.567 5 5.5S6.567 9 8.5 9H12V2z"/><path d="M12 9H8.5C6.567 9 5 10.567 5 12.5S6.567 16 8.5 16H12V9z"/><path d="M12 16H8.5C6.567 16 5 17.567 5 19.5S6.567 23 8.5 23S12 21.433 12 19.5V16z"/><path d="M12 2h3.5C17.433 2 19 3.567 19 5.5S17.433 9 15.5 9H12V2z"/><path d="M15.5 9c1.933 0 3.5 1.567 3.5 3.5S17.433 16 15.5 16S12 14.433 12 12.5S13.567 9 15.5 9z"/></svg>